<svg width="30" height="30" viewBox="0 0 30 30" fill="none" xmlns="http://www.w3.org/2000/svg">
<path d="M21.5625 8.4375C21.5625 10.178 20.8711 11.8472 19.6404 13.0779C18.4097 14.3086 16.7405 15 15 15C13.2595 15 11.5903 14.3086 10.3596 13.0779C9.1289 11.8472 8.4375 10.178 8.4375 8.4375C8.4375 6.69702 9.1289 5.02782 10.3596 3.79711C11.5903 2.5664 13.2595 1.875 15 1.875C16.7405 1.875 18.4097 2.5664 19.6404 3.79711C20.8711 5.02782 21.5625 6.69702 21.5625 8.4375ZM19.6875 8.4375C19.6875 7.1943 19.1936 6.00201 18.3146 5.12294C17.4355 4.24386 16.2432 3.75 15 3.75C13.7568 3.75 12.5645 4.24386 11.6854 5.12294C10.8064 6.00201 10.3125 7.1943 10.3125 8.4375C10.3125 9.6807 10.8064 10.873 11.6854 11.7521C12.5645 12.6311 13.7568 13.125 15 13.125C16.2432 13.125 17.4355 12.6311 18.3146 11.7521C19.1936 10.873 19.6875 9.6807 19.6875 8.4375ZM7.03125 16.875C6.16101 16.875 5.32641 17.2207 4.71106 17.8361C4.0957 18.4514 3.75 19.286 3.75 20.1562V20.625C3.75 22.8684 5.17781 24.7659 7.20469 26.0559C9.24281 27.3534 12.0019 28.125 15 28.125C17.9981 28.125 20.7563 27.3534 22.7953 26.0559C24.8222 24.7659 26.25 22.8684 26.25 20.625V20.1562C26.25 19.286 25.9043 18.4514 25.2889 17.8361C24.6736 17.2207 23.839 16.875 22.9688 16.875H7.03125ZM5.625 20.1562C5.625 19.7833 5.77316 19.4256 6.03688 19.1619C6.3006 18.8982 6.65829 18.75 7.03125 18.75H22.9688C23.3417 18.75 23.6994 18.8982 23.9631 19.1619C24.2268 19.4256 24.375 19.7833 24.375 20.1562V20.625C24.375 22.0059 23.4937 23.3897 21.7884 24.4744C20.0944 25.5525 17.6972 26.25 15 26.25C12.3028 26.25 9.90562 25.5525 8.21156 24.4744C6.50531 23.3906 5.625 22.005 5.625 20.625V20.1562Z" fill="white"/>
</svg>
