<svg width="30" height="30" viewBox="0 0 30 30" fill="none" xmlns="http://www.w3.org/2000/svg">
<path d="M13.75 13.725C13.75 13.3934 13.8817 13.0755 14.1161 12.8411C14.3505 12.6067 14.6685 12.475 15 12.475C15.3315 12.475 15.6495 12.6067 15.8839 12.8411C16.1183 13.0755 16.25 13.3934 16.25 13.725V21.225C16.25 21.5565 16.1183 21.8744 15.8839 22.1089C15.6495 22.3433 15.3315 22.475 15 22.475C14.6685 22.475 14.3505 22.3433 14.1161 22.1089C13.8817 21.8744 13.75 21.5565 13.75 21.225V13.725ZM15 7.56372C14.6685 7.56372 14.3505 7.69542 14.1161 7.92984C13.8817 8.16426 13.75 8.4822 13.75 8.81372C13.75 9.14524 13.8817 9.46318 14.1161 9.6976C14.3505 9.93202 14.6685 10.0637 15 10.0637C15.3315 10.0637 15.6495 9.93202 15.8839 9.6976C16.1183 9.46318 16.25 9.14524 16.25 8.81372C16.25 8.4822 16.1183 8.16426 15.8839 7.92984C15.6495 7.69542 15.3315 7.56372 15 7.56372Z" fill="white"/>
<path fill-rule="evenodd" clip-rule="evenodd" d="M15 2.5C8.09625 2.5 2.5 8.09625 2.5 15C2.5 21.9037 8.09625 27.5 15 27.5C21.9037 27.5 27.5 21.9037 27.5 15C27.5 8.09625 21.9037 2.5 15 2.5ZM5 15C5 17.6522 6.05357 20.1957 7.92893 22.0711C9.8043 23.9464 12.3478 25 15 25C17.6522 25 20.1957 23.9464 22.0711 22.0711C23.9464 20.1957 25 17.6522 25 15C25 12.3478 23.9464 9.8043 22.0711 7.92893C20.1957 6.05357 17.6522 5 15 5C12.3478 5 9.8043 6.05357 7.92893 7.92893C6.05357 9.8043 5 12.3478 5 15Z" fill="white"/>
</svg>
