<svg width="30" height="30" viewBox="0 0 30 30" fill="none" xmlns="http://www.w3.org/2000/svg">
<path d="M25.95 4.95C25.35 4.35 24.3 4.35 23.55 4.95L19.95 8.55C18.3656 7.96185 16.69 7.6572 15 7.65C9.3 7.8 4.2 10.8 1.5 15.75C1.8 16.35 2.25 16.95 2.7 17.55C3.9 19.2 5.4 20.55 7.05 21.6L4.5 24.15C3.9 24.75 3.75 25.8 4.5 26.55C5.1 27.15 6.15 27.3 6.9 26.55L25.95 7.35C26.55 6.6 26.55 5.55 25.95 4.95ZM10.05 18.45L8.1 20.4C6.3 19.35 4.65 17.85 3.45 16.05C5.25 13.5 7.65 11.7 10.5 10.8C8.55 12.9 8.4 16.2 10.05 18.45ZM15.15 13.5C14.4 12.75 14.55 11.55 15.3 10.8C16.05 10.2 17.1 10.2 17.85 10.8L15.15 13.5ZM27.45 14.25C26.7 13.2 25.8 12.15 24.75 11.4L23.25 12.9C24.45 13.8 25.5 14.85 26.4 16.2C23.85 20.1 19.5 22.5 14.85 22.5H13.65L12.15 24C13.2 23.85 14.1 24 15 24C19.95 24 24.6 21.6 27.45 17.55C27.9 16.95 28.2 16.35 28.65 15.75C28.2 15.3 27.9 14.7 27.45 14.25ZM21 15L15 21C18.3 21 21 18.3 21 15Z" fill="white"/>
</svg>
