<svg width="30" height="30" viewBox="0 0 30 30" fill="none" xmlns="http://www.w3.org/2000/svg">
<path d="M15 2.5C8.1 2.5 2.5 8.1 2.5 15C2.5 21.9 8.1 27.5 15 27.5C21.9 27.5 27.5 21.9 27.5 15C27.5 8.1 21.9 2.5 15 2.5ZM15 25C9.4875 25 5 20.5125 5 15C5 9.4875 9.4875 5 15 5C20.5125 5 25 9.4875 25 15C25 20.5125 20.5125 25 15 25Z" fill="white"/>
<path d="M10 20C11.3807 20 12.5 18.8807 12.5 17.5C12.5 16.1193 11.3807 15 10 15C8.61929 15 7.5 16.1193 7.5 17.5C7.5 18.8807 8.61929 20 10 20Z" fill="white"/>
<path d="M15 12.5C16.3807 12.5 17.5 11.3807 17.5 10C17.5 8.61929 16.3807 7.5 15 7.5C13.6193 7.5 12.5 8.61929 12.5 10C12.5 11.3807 13.6193 12.5 15 12.5Z" fill="white"/>
<path d="M20 20C21.3807 20 22.5 18.8807 22.5 17.5C22.5 16.1193 21.3807 15 20 15C18.6193 15 17.5 16.1193 17.5 17.5C17.5 18.8807 18.6193 20 20 20Z" fill="white"/>
</svg>
