<svg width="30" height="30" viewBox="0 0 30 30" fill="none" xmlns="http://www.w3.org/2000/svg">
<g clip-path="url(#clip0_7_62)">
<path d="M30.21 16.1538V16.195C30.21 18.1225 29.7682 19.955 28.9732 21.6125L29.01 21.5263C26.6618 26.54 21.3232 29.9863 15.105 29.9863C8.88682 29.9863 3.54819 26.5388 1.23819 21.6163L1.20001 21.5263C0.401909 19.8444 -0.00670783 18.0291 5.09479e-06 16.195V16.1088C5.09479e-06 11.615 2.35773 7.62753 6.00001 5.12628L6.03955 5.10128C6.30508 4.91224 6.60988 4.77484 6.93532 4.69746C7.26076 4.62009 7.59999 4.60437 7.93228 4.65128L7.91864 4.65003C8.60182 4.72378 9.18546 5.06003 9.55501 5.54378L9.56046 5.55003C9.76652 5.78891 9.91569 6.06471 9.99836 6.35967C10.081 6.65462 10.0954 6.96218 10.0405 7.26253L10.0418 7.25003C10.0005 7.54979 9.89351 7.83882 9.72738 8.09978C9.56125 8.36075 9.33936 8.5883 9.07501 8.76878L9.06819 8.77253C7.81128 9.63319 6.79082 10.7508 6.08797 12.0366C5.38512 13.3223 5.01928 14.7407 5.01955 16.1788C5.01979 17.7542 5.45916 19.3035 6.296 20.6796C7.13283 22.0557 8.33936 23.2129 9.8011 24.0415C11.2628 24.8702 12.9313 25.3427 14.6482 25.4142C16.3651 25.4858 18.0735 25.154 19.6112 24.4504C21.149 23.7468 22.4651 22.6947 23.4347 21.3939C24.4043 20.0931 24.9952 18.5868 25.1514 17.0178C25.3076 15.4489 25.0239 13.8694 24.3272 12.4292C23.6305 10.989 22.5439 9.73592 21.1705 8.78878L21.1446 8.77128C20.8806 8.59171 20.6585 8.36545 20.4915 8.10589C20.3245 7.84632 20.216 7.5587 20.1723 7.26003L20.1709 7.24878C20.1182 6.94946 20.1342 6.64336 20.2178 6.35C20.3013 6.05665 20.4507 5.78249 20.6564 5.54503L20.6523 5.55003C20.841 5.30251 21.0847 5.09444 21.3674 4.93952C21.6502 4.78461 21.9656 4.68637 22.2927 4.65128L22.3036 4.65003C22.6335 4.60364 22.9703 4.6201 23.2929 4.69839C23.6155 4.77668 23.917 4.91511 24.1786 5.10503L24.1732 5.10128C27.8577 7.62753 30.2168 11.6175 30.2168 16.1125V16.155V16.1525L30.21 16.1538ZM17.6236 2.30753V13.8925C17.6236 14.5045 17.3584 15.0914 16.8864 15.5242C16.4143 15.9569 15.774 16.2 15.1064 16.2C14.4387 16.2 13.7985 15.9569 13.3264 15.5242C12.8543 15.0914 12.5891 14.5045 12.5891 13.8925V13.8425V13.845V2.28753C12.5891 1.65753 12.8755 1.08878 13.335 0.685029L13.3364 0.683779C13.785 0.261279 14.4123 -0.0012207 15.1064 -0.0012207C15.8005 -0.0012207 16.4277 0.261279 16.8764 0.683779C17.3373 1.08878 17.6236 1.65628 17.6236 2.28628V2.30753Z" fill="white"/>
</g>
<defs>
<clipPath id="clip0_7_62">
<rect width="30" height="30" fill="white"/>
</clipPath>
</defs>
</svg>
