<svg width="30" height="30" viewBox="0 0 30 30" fill="none" xmlns="http://www.w3.org/2000/svg">
<path d="M12.6904 15C12.6904 16.3385 12.1587 17.6222 11.2122 18.5687C10.2658 19.5152 8.98207 20.0469 7.64356 20.0469C6.30504 20.0469 5.02135 19.5152 4.07488 18.5687C3.1284 17.6222 2.59668 16.3385 2.59668 15C2.59668 13.6615 3.1284 12.3778 4.07488 11.4313C5.02135 10.4848 6.30504 9.95312 7.64356 9.95312C8.98207 9.95312 10.2658 10.4848 11.2122 11.4313C12.1587 12.3778 12.6904 13.6615 12.6904 15ZM21.6154 1.0275C21.2579 0.66875 20.8892 0.3275 20.5092 0L18.5992 1.90875C22.3404 5.045 24.7229 9.75 24.7229 15C24.7229 20.25 22.3404 24.955 18.5992 28.0912L20.5092 30C20.8892 29.6725 21.2592 29.3312 21.6167 28.9725C23.4573 27.1419 24.9165 24.9643 25.91 22.5659C26.9034 20.1676 27.4113 17.596 27.4042 15C27.4042 9.72125 25.3479 4.76 21.6154 1.0275ZM16.8854 3.625L15.0379 5.47125C16.4923 6.59765 17.6695 8.04201 18.4794 9.69367C19.2893 11.3453 19.7103 13.1605 19.7103 15C19.7103 16.8395 19.2893 18.6547 18.4794 20.3063C17.6695 21.958 16.4923 23.4023 15.0379 24.5287L16.8842 26.375C18.5782 25.0025 19.9443 23.2689 20.8826 21.3009C21.821 19.333 22.3079 17.1802 22.3079 15C22.3079 12.8198 21.821 10.667 20.8826 8.69905C19.9443 6.73107 18.5782 4.99752 16.8842 3.625H16.8854ZM13.4667 7.04375L11.6867 8.82125C13.6992 10.1425 15.0304 12.4187 15.0304 15C15.0304 17.5812 13.6992 19.8575 11.6867 21.1788L13.4654 22.9562C14.7175 22.0415 15.736 20.8442 16.4382 19.4618C17.1404 18.0793 17.5065 16.5506 17.5067 15C17.5065 13.4494 17.1404 11.9207 16.4382 10.5382C15.736 9.15577 14.7187 7.95849 13.4667 7.04375Z" fill="white"/>
</svg>
